<mxfile host="app.diagrams.net" agent="Mozilla/5.0 (Windows NT 10.0; Win64; x64) AppleWebKit/537.36 (KHTML, like Gecko) Chrome/131.0.0.0 Safari/537.36" version="25.0.1">
  <diagram name="Trang-1" id="Wk9uYIBirXxdWqmsi_Zm">
    <mxGraphModel dx="880" dy="468" grid="1" gridSize="10" guides="1" tooltips="1" connect="1" arrows="1" fold="1" page="1" pageScale="1" pageWidth="827" pageHeight="1169" math="0" shadow="0">
      <root>
        <mxCell id="0" />
        <mxCell id="1" parent="0" />
        <mxCell id="FPZmEAxrQ5vPZwqQujK8-1" value="Start" style="ellipse;whiteSpace=wrap;html=1;" vertex="1" parent="1">
          <mxGeometry x="360" y="80" width="120" height="80" as="geometry" />
        </mxCell>
        <mxCell id="FPZmEAxrQ5vPZwqQujK8-2" value="&lt;span class=&quot;hljs-selector-tag&quot;&gt;Nh&lt;/span&gt;ậ&lt;span class=&quot;hljs-selector-tag&quot;&gt;p&lt;/span&gt; &lt;span class=&quot;hljs-selector-tag&quot;&gt;m&lt;/span&gt;ả&lt;span class=&quot;hljs-selector-tag&quot;&gt;ng&lt;/span&gt; &lt;span class=&quot;hljs-selector-tag&quot;&gt;a&lt;/span&gt;&lt;span class=&quot;hljs-selector-attr&quot;&gt;[]&lt;/span&gt; &lt;span class=&quot;hljs-selector-tag&quot;&gt;v&lt;/span&gt;à &lt;span class=&quot;hljs-selector-tag&quot;&gt;s&lt;/span&gt;ố &lt;span class=&quot;hljs-selector-tag&quot;&gt;l&lt;/span&gt;ượ&lt;span class=&quot;hljs-selector-tag&quot;&gt;ng&lt;/span&gt; &lt;span class=&quot;hljs-selector-tag&quot;&gt;n&lt;/span&gt;" style="shape=parallelogram;perimeter=parallelogramPerimeter;whiteSpace=wrap;html=1;fixedSize=1;" vertex="1" parent="1">
          <mxGeometry x="320" y="200" width="200" height="60" as="geometry" />
        </mxCell>
        <mxCell id="FPZmEAxrQ5vPZwqQujK8-3" value="n &amp;gt; 0 ?" style="rhombus;whiteSpace=wrap;html=1;" vertex="1" parent="1">
          <mxGeometry x="380" y="310" width="80" height="80" as="geometry" />
        </mxCell>
        <mxCell id="FPZmEAxrQ5vPZwqQujK8-4" value="n không hợp lệ" style="shape=parallelogram;perimeter=parallelogramPerimeter;whiteSpace=wrap;html=1;fixedSize=1;" vertex="1" parent="1">
          <mxGeometry x="220" y="320" width="120" height="60" as="geometry" />
        </mxCell>
        <mxCell id="FPZmEAxrQ5vPZwqQujK8-5" style="edgeStyle=orthogonalEdgeStyle;rounded=0;orthogonalLoop=1;jettySize=auto;html=1;exitX=0.5;exitY=1;exitDx=0;exitDy=0;" edge="1" parent="1" source="FPZmEAxrQ5vPZwqQujK8-4" target="FPZmEAxrQ5vPZwqQujK8-4">
          <mxGeometry relative="1" as="geometry" />
        </mxCell>
        <mxCell id="FPZmEAxrQ5vPZwqQujK8-6" value="&lt;span class=&quot;hljs-selector-tag&quot;&gt;min&lt;/span&gt; = &lt;span class=&quot;hljs-selector-tag&quot;&gt;a&lt;/span&gt;&lt;span class=&quot;hljs-selector-attr&quot;&gt;[0]&lt;/span&gt;, &lt;span class=&quot;hljs-selector-tag&quot;&gt;i&lt;/span&gt; = &lt;span class=&quot;hljs-number&quot;&gt;1&lt;/span&gt;" style="rounded=0;whiteSpace=wrap;html=1;" vertex="1" parent="1">
          <mxGeometry x="440" y="430" width="120" height="60" as="geometry" />
        </mxCell>
        <mxCell id="FPZmEAxrQ5vPZwqQujK8-7" value="&lt;span class=&quot;hljs-selector-tag&quot;&gt;i&lt;/span&gt; &amp;lt; &lt;span class=&quot;hljs-selector-tag&quot;&gt;n&lt;/span&gt; ?" style="rhombus;whiteSpace=wrap;html=1;" vertex="1" parent="1">
          <mxGeometry x="460" y="530" width="80" height="80" as="geometry" />
        </mxCell>
        <mxCell id="FPZmEAxrQ5vPZwqQujK8-8" value="&lt;span class=&quot;hljs-selector-tag&quot;&gt;a&lt;/span&gt;&lt;span class=&quot;hljs-selector-attr&quot;&gt;[i]&lt;/span&gt; &amp;gt; &lt;span class=&quot;hljs-number&quot;&gt;0&lt;/span&gt; &lt;span class=&quot;hljs-selector-tag&quot;&gt;v&lt;/span&gt;à &lt;span class=&quot;hljs-selector-tag&quot;&gt;a&lt;/span&gt;&lt;span class=&quot;hljs-selector-attr&quot;&gt;[i]&lt;/span&gt; &amp;lt; &lt;span class=&quot;hljs-selector-tag&quot;&gt;min&lt;/span&gt;?" style="rhombus;whiteSpace=wrap;html=1;" vertex="1" parent="1">
          <mxGeometry x="290" y="630" width="150" height="80" as="geometry" />
        </mxCell>
        <mxCell id="FPZmEAxrQ5vPZwqQujK8-9" value="&lt;span class=&quot;hljs-selector-tag&quot;&gt;min&lt;/span&gt; &amp;gt; &lt;span class=&quot;hljs-number&quot;&gt;0&lt;/span&gt;?" style="rhombus;whiteSpace=wrap;html=1;" vertex="1" parent="1">
          <mxGeometry x="610" y="620" width="80" height="80" as="geometry" />
        </mxCell>
        <mxCell id="FPZmEAxrQ5vPZwqQujK8-12" value="&lt;span class=&quot;hljs-selector-tag&quot;&gt;min&lt;/span&gt; = &lt;span class=&quot;hljs-selector-tag&quot;&gt;a&lt;/span&gt;&lt;span class=&quot;hljs-selector-attr&quot;&gt;[i]&lt;/span&gt;" style="rounded=0;whiteSpace=wrap;html=1;" vertex="1" parent="1">
          <mxGeometry x="200" y="740" width="80" height="60" as="geometry" />
        </mxCell>
        <mxCell id="FPZmEAxrQ5vPZwqQujK8-13" value="&lt;span class=&quot;hljs-selector-tag&quot;&gt;i&lt;/span&gt; = &lt;span class=&quot;hljs-selector-tag&quot;&gt;i&lt;/span&gt; + &lt;span class=&quot;hljs-number&quot;&gt;1&lt;/span&gt;" style="rounded=0;whiteSpace=wrap;html=1;" vertex="1" parent="1">
          <mxGeometry x="305" y="840" width="120" height="60" as="geometry" />
        </mxCell>
        <mxCell id="FPZmEAxrQ5vPZwqQujK8-14" value="Hiển thị min" style="shape=parallelogram;perimeter=parallelogramPerimeter;whiteSpace=wrap;html=1;fixedSize=1;" vertex="1" parent="1">
          <mxGeometry x="510" y="760" width="120" height="60" as="geometry" />
        </mxCell>
        <mxCell id="FPZmEAxrQ5vPZwqQujK8-15" value="Không có số nguyên dương" style="shape=parallelogram;perimeter=parallelogramPerimeter;whiteSpace=wrap;html=1;fixedSize=1;" vertex="1" parent="1">
          <mxGeometry x="690" y="760" width="150" height="60" as="geometry" />
        </mxCell>
        <mxCell id="FPZmEAxrQ5vPZwqQujK8-16" value="End" style="ellipse;whiteSpace=wrap;html=1;" vertex="1" parent="1">
          <mxGeometry x="590" y="870" width="120" height="80" as="geometry" />
        </mxCell>
        <mxCell id="FPZmEAxrQ5vPZwqQujK8-17" value="" style="endArrow=classic;html=1;rounded=0;exitX=0.5;exitY=1;exitDx=0;exitDy=0;entryX=0.5;entryY=0;entryDx=0;entryDy=0;" edge="1" parent="1" source="FPZmEAxrQ5vPZwqQujK8-1" target="FPZmEAxrQ5vPZwqQujK8-2">
          <mxGeometry width="50" height="50" relative="1" as="geometry">
            <mxPoint x="320" y="250" as="sourcePoint" />
            <mxPoint x="370" y="200" as="targetPoint" />
          </mxGeometry>
        </mxCell>
        <mxCell id="FPZmEAxrQ5vPZwqQujK8-18" value="" style="endArrow=classic;html=1;rounded=0;exitX=0.5;exitY=1;exitDx=0;exitDy=0;entryX=0.5;entryY=0;entryDx=0;entryDy=0;" edge="1" parent="1" source="FPZmEAxrQ5vPZwqQujK8-2" target="FPZmEAxrQ5vPZwqQujK8-3">
          <mxGeometry width="50" height="50" relative="1" as="geometry">
            <mxPoint x="320" y="270" as="sourcePoint" />
            <mxPoint x="370" y="220" as="targetPoint" />
          </mxGeometry>
        </mxCell>
        <mxCell id="FPZmEAxrQ5vPZwqQujK8-19" value="" style="endArrow=classic;html=1;rounded=0;entryX=0.5;entryY=0;entryDx=0;entryDy=0;exitX=1;exitY=1;exitDx=0;exitDy=0;" edge="1" parent="1" source="FPZmEAxrQ5vPZwqQujK8-3" target="FPZmEAxrQ5vPZwqQujK8-6">
          <mxGeometry width="50" height="50" relative="1" as="geometry">
            <mxPoint x="320" y="460" as="sourcePoint" />
            <mxPoint x="370" y="410" as="targetPoint" />
          </mxGeometry>
        </mxCell>
        <mxCell id="FPZmEAxrQ5vPZwqQujK8-20" value="" style="endArrow=classic;html=1;rounded=0;exitX=0.5;exitY=1;exitDx=0;exitDy=0;entryX=0.5;entryY=0;entryDx=0;entryDy=0;" edge="1" parent="1" source="FPZmEAxrQ5vPZwqQujK8-6" target="FPZmEAxrQ5vPZwqQujK8-7">
          <mxGeometry width="50" height="50" relative="1" as="geometry">
            <mxPoint x="320" y="550" as="sourcePoint" />
            <mxPoint x="370" y="500" as="targetPoint" />
          </mxGeometry>
        </mxCell>
        <mxCell id="FPZmEAxrQ5vPZwqQujK8-21" value="" style="endArrow=classic;html=1;rounded=0;exitX=1;exitY=1;exitDx=0;exitDy=0;entryX=0;entryY=0;entryDx=0;entryDy=0;" edge="1" parent="1" source="FPZmEAxrQ5vPZwqQujK8-7" target="FPZmEAxrQ5vPZwqQujK8-9">
          <mxGeometry width="50" height="50" relative="1" as="geometry">
            <mxPoint x="320" y="620" as="sourcePoint" />
            <mxPoint x="370" y="570" as="targetPoint" />
          </mxGeometry>
        </mxCell>
        <mxCell id="FPZmEAxrQ5vPZwqQujK8-22" value="" style="endArrow=classic;html=1;rounded=0;entryX=0.807;entryY=0.288;entryDx=0;entryDy=0;entryPerimeter=0;" edge="1" parent="1" source="FPZmEAxrQ5vPZwqQujK8-7" target="FPZmEAxrQ5vPZwqQujK8-8">
          <mxGeometry width="50" height="50" relative="1" as="geometry">
            <mxPoint x="320" y="760" as="sourcePoint" />
            <mxPoint x="370" y="710" as="targetPoint" />
          </mxGeometry>
        </mxCell>
        <mxCell id="FPZmEAxrQ5vPZwqQujK8-23" value="" style="endArrow=classic;html=1;rounded=0;exitX=0.5;exitY=1;exitDx=0;exitDy=0;entryX=0.5;entryY=0;entryDx=0;entryDy=0;" edge="1" parent="1" source="FPZmEAxrQ5vPZwqQujK8-8" target="FPZmEAxrQ5vPZwqQujK8-13">
          <mxGeometry width="50" height="50" relative="1" as="geometry">
            <mxPoint x="320" y="830" as="sourcePoint" />
            <mxPoint x="370" y="780" as="targetPoint" />
          </mxGeometry>
        </mxCell>
        <mxCell id="FPZmEAxrQ5vPZwqQujK8-24" value="" style="endArrow=classic;html=1;rounded=0;exitX=0;exitY=1;exitDx=0;exitDy=0;entryX=0.75;entryY=0;entryDx=0;entryDy=0;" edge="1" parent="1" source="FPZmEAxrQ5vPZwqQujK8-8" target="FPZmEAxrQ5vPZwqQujK8-12">
          <mxGeometry width="50" height="50" relative="1" as="geometry">
            <mxPoint x="320" y="830" as="sourcePoint" />
            <mxPoint x="370" y="780" as="targetPoint" />
          </mxGeometry>
        </mxCell>
        <mxCell id="FPZmEAxrQ5vPZwqQujK8-25" value="" style="endArrow=classic;html=1;rounded=0;exitX=1;exitY=1;exitDx=0;exitDy=0;entryX=0.5;entryY=0;entryDx=0;entryDy=0;" edge="1" parent="1" source="FPZmEAxrQ5vPZwqQujK8-9" target="FPZmEAxrQ5vPZwqQujK8-15">
          <mxGeometry width="50" height="50" relative="1" as="geometry">
            <mxPoint x="420" y="830" as="sourcePoint" />
            <mxPoint x="470" y="780" as="targetPoint" />
          </mxGeometry>
        </mxCell>
        <mxCell id="FPZmEAxrQ5vPZwqQujK8-26" value="" style="endArrow=classic;html=1;rounded=0;entryX=0.567;entryY=-0.05;entryDx=0;entryDy=0;entryPerimeter=0;exitX=0;exitY=1;exitDx=0;exitDy=0;" edge="1" parent="1" source="FPZmEAxrQ5vPZwqQujK8-9" target="FPZmEAxrQ5vPZwqQujK8-14">
          <mxGeometry width="50" height="50" relative="1" as="geometry">
            <mxPoint x="540" y="740" as="sourcePoint" />
            <mxPoint x="470" y="780" as="targetPoint" />
          </mxGeometry>
        </mxCell>
        <mxCell id="FPZmEAxrQ5vPZwqQujK8-27" value="" style="endArrow=classic;html=1;rounded=0;exitX=0.433;exitY=1;exitDx=0;exitDy=0;exitPerimeter=0;entryX=0.3;entryY=0.038;entryDx=0;entryDy=0;entryPerimeter=0;" edge="1" parent="1" source="FPZmEAxrQ5vPZwqQujK8-14" target="FPZmEAxrQ5vPZwqQujK8-16">
          <mxGeometry width="50" height="50" relative="1" as="geometry">
            <mxPoint x="420" y="830" as="sourcePoint" />
            <mxPoint x="470" y="780" as="targetPoint" />
          </mxGeometry>
        </mxCell>
        <mxCell id="FPZmEAxrQ5vPZwqQujK8-28" value="" style="endArrow=classic;html=1;rounded=0;exitX=0.25;exitY=1;exitDx=0;exitDy=0;entryX=0.758;entryY=0.05;entryDx=0;entryDy=0;entryPerimeter=0;" edge="1" parent="1" source="FPZmEAxrQ5vPZwqQujK8-15" target="FPZmEAxrQ5vPZwqQujK8-16">
          <mxGeometry width="50" height="50" relative="1" as="geometry">
            <mxPoint x="420" y="830" as="sourcePoint" />
            <mxPoint x="470" y="780" as="targetPoint" />
          </mxGeometry>
        </mxCell>
        <mxCell id="FPZmEAxrQ5vPZwqQujK8-29" value="" style="endArrow=classic;html=1;rounded=0;exitX=0;exitY=0.5;exitDx=0;exitDy=0;entryX=1;entryY=0.5;entryDx=0;entryDy=0;" edge="1" parent="1" source="FPZmEAxrQ5vPZwqQujK8-3" target="FPZmEAxrQ5vPZwqQujK8-4">
          <mxGeometry width="50" height="50" relative="1" as="geometry">
            <mxPoint x="420" y="430" as="sourcePoint" />
            <mxPoint x="470" y="380" as="targetPoint" />
          </mxGeometry>
        </mxCell>
        <mxCell id="FPZmEAxrQ5vPZwqQujK8-30" value="" style="endArrow=classic;html=1;rounded=0;exitX=0;exitY=0.5;exitDx=0;exitDy=0;entryX=0.05;entryY=0.788;entryDx=0;entryDy=0;entryPerimeter=0;" edge="1" parent="1" source="FPZmEAxrQ5vPZwqQujK8-4" target="FPZmEAxrQ5vPZwqQujK8-16">
          <mxGeometry width="50" height="50" relative="1" as="geometry">
            <mxPoint x="420" y="540" as="sourcePoint" />
            <mxPoint x="480" y="850" as="targetPoint" />
            <Array as="points">
              <mxPoint x="130" y="350" />
              <mxPoint x="130" y="930" />
            </Array>
          </mxGeometry>
        </mxCell>
        <mxCell id="FPZmEAxrQ5vPZwqQujK8-31" value="No" style="text;html=1;align=center;verticalAlign=middle;whiteSpace=wrap;rounded=0;" vertex="1" parent="1">
          <mxGeometry x="330" y="360" width="60" height="30" as="geometry" />
        </mxCell>
        <mxCell id="FPZmEAxrQ5vPZwqQujK8-32" value="Yes" style="text;html=1;align=center;verticalAlign=middle;whiteSpace=wrap;rounded=0;" vertex="1" parent="1">
          <mxGeometry x="460" y="380" width="60" height="30" as="geometry" />
        </mxCell>
        <mxCell id="FPZmEAxrQ5vPZwqQujK8-33" value="Yes" style="text;html=1;align=center;verticalAlign=middle;whiteSpace=wrap;rounded=0;" vertex="1" parent="1">
          <mxGeometry x="400" y="585" width="60" height="30" as="geometry" />
        </mxCell>
        <mxCell id="FPZmEAxrQ5vPZwqQujK8-34" value="No" style="text;html=1;align=center;verticalAlign=middle;whiteSpace=wrap;rounded=0;" vertex="1" parent="1">
          <mxGeometry x="560" y="580" width="60" height="30" as="geometry" />
        </mxCell>
        <mxCell id="FPZmEAxrQ5vPZwqQujK8-35" value="No" style="text;html=1;align=center;verticalAlign=middle;whiteSpace=wrap;rounded=0;" vertex="1" parent="1">
          <mxGeometry x="710" y="690" width="60" height="30" as="geometry" />
        </mxCell>
        <mxCell id="FPZmEAxrQ5vPZwqQujK8-36" value="No" style="text;html=1;align=center;verticalAlign=middle;whiteSpace=wrap;rounded=0;" vertex="1" parent="1">
          <mxGeometry x="365" y="755" width="60" height="30" as="geometry" />
        </mxCell>
        <mxCell id="FPZmEAxrQ5vPZwqQujK8-37" value="Yes" style="text;html=1;align=center;verticalAlign=middle;whiteSpace=wrap;rounded=0;" vertex="1" parent="1">
          <mxGeometry x="250" y="690" width="60" height="30" as="geometry" />
        </mxCell>
        <mxCell id="FPZmEAxrQ5vPZwqQujK8-38" value="Yes" style="text;html=1;align=center;verticalAlign=middle;whiteSpace=wrap;rounded=0;" vertex="1" parent="1">
          <mxGeometry x="550" y="700" width="60" height="30" as="geometry" />
        </mxCell>
        <mxCell id="FPZmEAxrQ5vPZwqQujK8-39" value="" style="endArrow=classic;html=1;rounded=0;exitX=0;exitY=0.5;exitDx=0;exitDy=0;" edge="1" parent="1" source="FPZmEAxrQ5vPZwqQujK8-13">
          <mxGeometry width="50" height="50" relative="1" as="geometry">
            <mxPoint x="420" y="780" as="sourcePoint" />
            <mxPoint x="500" y="510" as="targetPoint" />
            <Array as="points">
              <mxPoint x="180" y="870" />
              <mxPoint x="180" y="510" />
            </Array>
          </mxGeometry>
        </mxCell>
      </root>
    </mxGraphModel>
  </diagram>
</mxfile>
